<?xml version="1.0" encoding="UTF-8" standalone="no"?>
<svg width="1920" height="1080" viewBox="0 0 1920 1080" xmlns="http://www.w3.org/2000/svg">
  <defs>
    <filter id="parchment">
      <feTurbulence type="fractalNoise" baseFrequency="0.04" numOctaves="5" result="noise"/>
      <feDiffuseLighting in="noise" lighting-color="#8b4513" surfaceScale="2">
        <feDistantLight azimuth="45" elevation="60"/>
      </feDiffuseLighting>
    </filter>
  </defs>
  <rect width="100%" height="100%" fill="#f4d03f" filter="url(#parchment)"/>
  <g fill="none" stroke="#8b4513" stroke-width="3">
    <path d="M200,200 C400,150 600,250 800,200 S1000,150 1200,200 S1400,250 1600,200"/>
    <path d="M300,400 C500,350 700,450 900,400 S1100,350 1300,400 S1500,450 1700,400"/>
    <path d="M400,600 C600,550 800,650 1000,600 S1200,550 1400,600 S1600,650 1800,600"/>
  </g>
  <g fill="#8b4513">
    <circle cx="500" cy="300" r="20"/>
    <circle cx="900" cy="500" r="20"/>
    <circle cx="1300" cy="400" r="20"/>
    <path d="M600,200 l40,-20 l-20,40 z"/>
    <path d="M1000,400 l40,-20 l-20,40 z"/>
    <path d="M1400,300 l40,-20 l-20,40 z"/>
  </g>
  <text x="960" y="100" text-anchor="middle" font-family="serif" font-size="48" fill="#8b4513">Fantasy Realm</text>
  <text x="300" y="250" font-family="serif" font-size="24" fill="#8b4513">Dragon's Lair</text>
  <text x="1500" y="450" font-family="serif" font-size="24" fill="#8b4513">Mystic Forest</text>
  <text x="800" y="650" font-family="serif" font-size="24" fill="#8b4513">Ancient Kingdom</text>
</svg>
