<?xml version="1.0" encoding="UTF-8" standalone="no"?>
<svg width="1920" height="1080" viewBox="0 0 1920 1080" xmlns="http://www.w3.org/2000/svg">
  <defs>
    <filter id="parchment">
      <feTurbulence type="fractalNoise" baseFrequency="0.03" numOctaves="5" result="noise"/>
      <feDiffuseLighting in="noise" lighting-color="#d4b483" surfaceScale="2">
        <feDistantLight azimuth="45" elevation="60"/>
      </feDiffuseLighting>
    </filter>
    <filter id="texture">
      <feTurbulence type="turbulence" baseFrequency="0.01" numOctaves="3"/>
      <feColorMatrix values="0 0 0 9 -4   0 0 0 9 -4   0 0 0 9 -4  0 0 0 0 1"/>
    </filter>
  </defs>
  
  <!-- Background -->
  <rect width="100%" height="100%" fill="#e5d0b1" filter="url(#parchment)"/>
  
  <!-- Terrain Features -->
  <g fill="none" stroke="#4a362d" stroke-width="2">
    <!-- Mountains -->
    <path d="M200,300 l50,-80 l50,80 M400,250 l60,-90 l60,90 M800,350 l70,-100 l70,100" 
          stroke-width="3" fill="#594d44"/>
    
    <!-- Forests -->
    <circle cx="300" cy="500" r="40" fill="#2d4a36"/>
    <circle cx="350" cy="480" r="35" fill="#2d4a36"/>
    <circle cx="900" cy="400" r="45" fill="#2d4a36"/>
    <circle cx="950" cy="380" r="40" fill="#2d4a36"/>
    
    <!-- Rivers -->
    <path d="M100,200 C300,250 500,150 700,300 S900,400 1100,300" 
          stroke="#1e3d59" stroke-width="4"/>
  </g>
  
  <!-- Locations -->
  <g fill="#6d4c41" font-family="Luminari, Fantasy">
    <g transform="translate(250,200)">
      <circle cx="0" cy="0" r="8" fill="#8b4513"/>
      <text x="20" y="5" font-size="24">Kaer Morhen</text>
    </g>
    <g transform="translate(600,400)">
      <circle cx="0" cy="0" r="8" fill="#8b4513"/>
      <text x="20" y="5" font-size="24">White Orchard</text>
    </g>
    <g transform="translate(900,300)">
      <circle cx="0" cy="0" r="8" fill="#8b4513"/>
      <text x="20" y="5" font-size="24">Novigrad</text>
    </g>
  </g>
  
  <!-- Decorative Elements -->
  <g transform="translate(1700,200)" fill="#4a362d">
    <path d="M0,0 l40,-20 l-20,40 z"/> <!-- Compass Rose -->
  </g>
  
  <!-- Title -->
  <text x="960" y="100" text-anchor="middle" 
        font-family="Luminari, Fantasy" font-size="48" 
        fill="#4a362d" filter="url(#texture)">
    The Northern Realms
  </text>
</svg>
